<svg width="1920" height="1920" viewBox="0 0 1920 1920" fill="none" xmlns="http://www.w3.org/2000/svg">
<rect width="1920" height="1920" rx="447" fill="white"/>
<path d="M731.318 288.399C734.214 285.534 738.876 285.534 741.772 288.399L1183.08 725.126C1187.8 729.795 1184.49 737.838 1177.86 737.838H295.235C288.596 737.838 285.289 729.795 290.008 725.126L731.318 288.399Z" fill="#A60A39"/>
<path d="M1631.4 1180.44C1634.27 1183.34 1634.27 1188 1631.4 1190.9L1194.67 1632.21C1190 1636.93 1181.96 1633.62 1181.96 1626.98L1181.96 744.36C1181.96 737.721 1190 734.414 1194.67 739.133L1631.4 1180.44Z" fill="#A60A39"/>
<path d="M732.467 286.001C741.488 285.995 741.525 286.03 752.651 286.03H1613.85C1624.97 286.03 1633.99 295.05 1633.99 306.175V1168.22C1633.99 1179.35 1624.97 1188.37 1613.85 1188.37H752.651C741.525 1188.37 732.467 1179.34 732.467 1168.21V286.001Z" fill="#ED155A"/>
<mask id="mask0_16_537" style="mask-type:alpha" maskUnits="userSpaceOnUse" x="732" y="286" width="902" height="903">
<path d="M1634 1168.2C1634 1179.33 1634 1177.2 1634 1188.35L752.657 1188.35C741.531 1188.35 732.512 1179.33 732.512 1168.2L732.512 306.159C732.512 295.033 741.531 286.014 752.657 286.014L1613.85 286.013C1624.98 286.013 1634 295.033 1634 306.158L1634 1168.2Z" fill="#ED155A"/>
</mask>
<g mask="url(#mask0_16_537)">
<path d="M2304.2 544.264C2312.06 552.135 2312.06 564.896 2304.2 572.767L852.571 2025.77C844.707 2033.64 831.958 2033.64 824.095 2025.77L374.239 1575.49C366.376 1567.62 366.376 1554.85 374.239 1546.98L1825.87 93.9846C1833.73 86.1138 1846.48 86.1138 1854.34 93.9846L2304.2 544.264Z" fill="#D0124F"/>
</g>
<path d="M1455.38 624.798C1455.38 712.469 1384.31 783.541 1296.64 783.541C1208.97 783.541 1137.9 712.469 1137.9 624.798C1137.9 537.126 1208.97 466.055 1296.64 466.055C1384.31 466.055 1455.38 537.126 1455.38 624.798Z" fill="white"/>
<path d="M464.53 1361.22L286.824 1533.93C286.297 1534.45 286 1535.15 286 1535.88V1631.15C286 1632.66 287.221 1633.88 288.726 1633.88H377.592C378.296 1633.88 378.973 1633.6 379.481 1633.12L560.988 1459.02C562.083 1457.97 562.107 1456.23 561.041 1455.15L468.374 1361.26C467.322 1360.19 465.604 1360.17 464.53 1361.22Z" fill="#A60A39"/>
<path d="M455.397 917.219L288.185 1080.78C287.698 1081.26 287.424 1081.91 287.424 1082.58V1256.53C287.424 1258.78 290.155 1259.91 291.776 1258.34L550.882 1007.49C549.96 1006.54 550.094 1006.68 549.08 1005.68L457.558 915.141C456.282 916.333 456.396 916.242 455.397 917.219Z" fill="#A60A39"/>
<path d="M914.033 1370.85L649.427 1628.18C647.788 1629.77 648.908 1632.56 651.185 1632.56H834.024C834.691 1632.56 835.331 1632.3 835.806 1631.82L1005.2 1462.79C1004.3 1461.85 1004.41 1461.97 1003.42 1460.97L915.821 1372.64C914.845 1371.66 914.895 1371.69 914.033 1370.85Z" fill="#A60A39"/>
</svg>
